<?xml version="1.0" encoding="UTF-8" standalone="no"?>
<svg
   width="281.77124"
   height="36.590771"
   viewBox="0 0 281.77125 36.590771"
   fill="none"
   version="1.1"
   id="svg7"
   xmlns="http://www.w3.org/2000/svg"
   xmlns:svg="http://www.w3.org/2000/svg">
  <defs
     id="defs7" />
  <path
     d="m 36.330731,10.462541 c 0.35,-0.3492 0.926,-0.3385 1.289,0.0237 l 7.5,7.5006 c 0.362,0.3623 0.373,0.939 0.024,1.2882 l -13.823,13.823 c -0.349,0.3491 -0.926,0.3385 -1.288,-0.0238 l -7.501,-7.5006 c -0.362,-0.3622 -0.373,-0.939 -0.024,-1.2881 z"
     fill="#ffffff"
     fill-opacity="0.6"
     id="path1" />
  <path
     d="m 26.062731,0.28094078 c 0.373,-0.3732 0.976,-0.3748 1.348,-0.0035 l 7.687,7.68680002 c 0.371,0.3713 0.369,0.9748 -0.004,1.348 l -24.211,24.2110002 c -0.373,0.3732 -0.977,0.3748 -1.348,0.0035 l -7.687,-7.6868 c -0.371,-0.3713 -0.369,-0.9747 0.004,-1.3479 z"
     fill="#ffffff"
     fill-opacity="0.35"
     id="path2" />
  <path
     d="m 20.869731,23.061241 -0.106,-0.1049 -0.105,0.1049 -10.208,10.1364 -8.53,-8.4713 -0.106,-0.105 -0.106,0.105 -1.389,1.3794 -0.107,0.1064 0.107,0.1064 10.026,9.9556 0.105,0.105 0.106,-0.105 10.207,-10.1363 9.801,9.7323 0.044,0.0436 h 0.062 8.755 0.15 v -0.15 -1.9507 -0.15 h -0.15 -7.88 z"
     fill="#ffd13e"
     stroke="#002d3c"
     stroke-width="0.3"
     id="path3" />
  <path
     d="m 37.733731,28.920841 c -0.33,0.3324 -0.534,0.7708 -0.576,1.2389 l -0.408,4.5504 c -0.053,0.5997 0.426,1.1117 1.023,1.0933 l 4.812,-0.1482 c 0.507,-0.0156 0.989,-0.2255 1.348,-0.5869 l 6.064,-6.1078 -3.265,-3.2812 -2.886,-2.9144 z"
     fill="#ffffff"
     id="path4" />
  <path
     d="m 44.780731,21.823041 6.151,6.1957 1.451,-1.4614 c 0.389,-0.3919 0.389,-1.0273 0,-1.4192 l -4.742,-4.7764 c -0.389,-0.392 -1.02,-0.392 -1.409,0 z"
     fill="#ffffff"
     id="path5" />
  <path
     d="M 63.196731,13.750641 V 3.5688408 h 4.206 c 0.762,0 1.42,0.1375 1.973,0.4126 0.557,0.2718 0.986,0.6629 1.288,1.1733 0.302,0.5071 0.452,1.1087 0.452,1.8047 0,0.706 -0.154,1.3059 -0.462,1.7997 -0.308,0.4906 -0.746,0.8651 -1.313,1.1236 -0.566,0.2552002 -1.237,0.3828002 -2.013,0.3828002 h -2.66 V 8.3266408 h 2.203 c 0.371,0 0.681,-0.0481 0.929,-0.1442 0.252,-0.0994 0.443,-0.2486 0.572,-0.4474 0.129,-0.2022 0.194,-0.4607 0.194,-0.7756 0,-0.3149 -0.065,-0.575 -0.194,-0.7805 -0.129,-0.2088 -0.32,-0.3646 -0.572,-0.4674 -0.252,-0.106 -0.561,-0.1591 -0.929,-0.1591 h -1.213 v 8.1982002 z m 5.732,-4.6534002 2.535,4.6534002 h -2.684 l -2.486,-4.6534002 z m 7.877,4.6534002 V 3.5688408 h 6.95 v 1.9986 h -4.489 v 2.088 h 4.047 v 2.0036 h -4.047 v 4.0916002 z m 21.772,-6.4929002 h -2.486 c -0.033,-0.2552 -0.101,-0.4856 -0.204,-0.691 -0.103,-0.2055 -0.238,-0.3812 -0.408,-0.527 -0.169,-0.1459 -0.369,-0.2569 -0.601,-0.3331 -0.229,-0.0796 -0.482,-0.1194 -0.761,-0.1194 -0.494,0 -0.919,0.121 -1.277,0.363 -0.355,0.2419 -0.629,0.5916 -0.821,1.049 -0.189,0.4574 -0.283,1.0109 -0.283,1.6605 0,0.6761 0.096,1.2429 0.288,1.7003002 0.196,0.454 0.469,0.7971 0.821,1.0291 0.354,0.2287 0.773,0.343 1.257,0.343 0.272,0 0.519,-0.0348 0.741,-0.1044 0.225,-0.0696 0.423,-0.1707 0.592,-0.3032 0.172,-0.1359 0.313,-0.3 0.422,-0.4922 0.113,-0.1956 0.191,-0.416 0.234,-0.6612 l 2.486,0.0149 c -0.043,0.4507 -0.174,0.8949 -0.393,1.3324 -0.215,0.4375 -0.512,0.8368 -0.89,1.1981 -0.378,0.358 -0.838,0.643 -1.382,0.8551 -0.54,0.2121 -1.16,0.3182 -1.859,0.3182 -0.922,0 -1.747,-0.2022 -2.476,-0.6065 -0.726,-0.4077 -1.299,-1.001 -1.72,-1.7799 -0.421,-0.7788 -0.632,-1.7268002 -0.632,-2.8437002 0,-1.1203 0.214,-2.0698 0.642,-2.8487 0.427,-0.7789 1.005,-1.3705 1.735,-1.7749 0.729,-0.4043 1.546,-0.6065 2.451,-0.6065 0.616,0 1.186,0.0862 1.71,0.2585 0.524,0.169 0.984,0.4176 1.382,0.7457 0.398,0.3248 0.721,0.7242 0.969,1.1982 0.249,0.474 0.403,1.0159 0.463,1.6257 z M 111.67373,13.750641 V 3.5688408 h 7.099 v 1.9986 h -4.638 v 2.088 h 4.275 v 2.0036 h -4.275 v 2.0930002 h 4.638 v 1.9986 z m 16.744,0 h -3.764 V 3.5688408 h 3.759 c 1.037,0 1.931,0.2038 2.68,0.6115 0.752,0.4043 1.332,0.9877 1.74,1.75 0.407,0.759 0.611,1.6671 0.611,2.7244 0,1.0606 -0.204,1.9721002 -0.611,2.7344002 -0.405,0.7623 -0.983,1.3473 -1.735,1.755 -0.753,0.4043 -1.646,0.6065 -2.68,0.6065 z m -1.303,-2.098 h 1.208 c 0.571,0 1.053,-0.0961 1.447,-0.2884 0.398,-0.1955 0.698,-0.512 0.9,-0.9495 0.206,-0.4409002 0.308,-1.0275002 0.308,-1.7600002 0,-0.7325 -0.102,-1.3158 -0.308,-1.75 -0.205,-0.4375 -0.509,-0.7523 -0.91,-0.9446 -0.397,-0.1955 -0.888,-0.2933 -1.471,-0.2933 h -1.174 z m 14.567,-8.0838002 V 13.750641 h -2.461 V 3.5688408 Z m 5.552,1.9986 v -1.9986 h 8.606 v 1.9986 h -3.088 v 8.1832002 h -2.426 V 5.5674408 Z m 23.293,3.0923 c 0,1.1203 -0.216,2.0698002 -0.647,2.8487002 -0.43,0.7789 -1.014,1.3705 -1.75,1.7749 -0.732,0.4043 -1.554,0.6065 -2.466,0.6065 -0.914,0 -1.738,-0.2038 -2.47,-0.6115 -0.733,-0.4077 -1.315,-0.9993 -1.745,-1.7749 -0.428,-0.7788 -0.642,-1.7268002 -0.642,-2.8437002 0,-1.1203 0.214,-2.0698 0.642,-2.8487 0.43,-0.7789 1.012,-1.3705 1.745,-1.7749 0.732,-0.4043 1.556,-0.6065 2.47,-0.6065 0.912,0 1.734,0.2022 2.466,0.6065 0.736,0.4044 1.32,0.996 1.75,1.7749 0.431,0.7789 0.647,1.7284 0.647,2.8487 z m -2.516,0 c 0,-0.6629 -0.094,-1.223 -0.283,-1.6804 -0.186,-0.4574 -0.454,-0.8037 -0.806,-1.0391 -0.348,-0.2353 -0.767,-0.353 -1.258,-0.353 -0.487,0 -0.906,0.1177 -1.257,0.353 -0.352,0.2354 -0.622,0.5817 -0.811,1.0391 -0.185,0.4574 -0.278,1.0175 -0.278,1.6804 0,0.6629 0.093,1.223 0.278,1.6804002 0.189,0.4574 0.459,0.8037 0.811,1.0391 0.351,0.2353 0.77,0.3529 1.257,0.3529 0.491,0 0.91,-0.1176 1.258,-0.3529 0.352,-0.2354 0.62,-0.5817 0.806,-1.0391 0.189,-0.4574002 0.283,-1.0175002 0.283,-1.6804002 z m 8.292,5.0909002 V 3.5688408 h 4.206 c 0.763,0 1.421,0.1375 1.974,0.4126 0.557,0.2718 0.986,0.6629 1.288,1.1733 0.301,0.5071 0.452,1.1087 0.452,1.8047 0,0.706 -0.154,1.3059 -0.462,1.7997 -0.308,0.4906 -0.746,0.8651 -1.313,1.1236 -0.566,0.2552002 -1.238,0.3828002 -2.013,0.3828002 h -2.66 V 8.3266408 h 2.202 c 0.372,0 0.682,-0.0481 0.93,-0.1442 0.252,-0.0994 0.443,-0.2486 0.572,-0.4474 0.129,-0.2022 0.194,-0.4607 0.194,-0.7756 0,-0.3149 -0.065,-0.575 -0.194,-0.7805 -0.129,-0.2088 -0.32,-0.3646 -0.572,-0.4674 -0.252,-0.106 -0.562,-0.1591 -0.93,-0.1591 h -1.213 v 8.1982002 z m 5.733,-4.6534002 2.535,4.6534002 h -2.684 l -2.486,-4.6534002 z"
     fill="#ffffff"
     id="path6" />
  <path
     style="font-weight:bold;font-size:14.6667px;font-family:Sans;-inkscape-font-specification:'Sans, Bold';font-variation-settings:'wght' 700;letter-spacing:3px;word-spacing:0px;white-space:pre;fill:#f9f9f9;stroke-width:0"
     d="m 197.09561,3.5687081 h 2.63277 v 3.8910258 h 3.88419 V 3.5687081 h 2.63277 V 13.778377 h -2.63277 V 9.4496961 h -3.88419 v 4.3286809 h -2.63277 z m 14.58559,0 h 2.63277 V 13.778377 h -2.63277 z m 15.18053,0.3214026 v 2.1609212 q -0.84112,-0.3761096 -1.6412,-0.5675833 -0.80009,-0.1914738 -1.51128,-0.1914738 -0.9437,0 -1.39503,0.2598576 -0.45133,0.2598576 -0.45133,0.8069263 0,0.410301 0.30089,0.642805 0.30772,0.2256662 1.10781,0.3897864 l 1.12149,0.2256662 q 1.70276,0.3419181 2.42078,1.0394303 0.71803,0.6975131 0.71803,1.9831244 0,1.689074 -1.00524,2.516516 -0.9984,0.820603 -3.05675,0.820603 -0.97104,0 -1.94893,-0.184636 -0.97788,-0.184636 -1.95577,-0.547069 v -2.222467 q 0.97789,0.519716 1.88739,0.786412 0.91634,0.259858 1.7643,0.259858 0.86163,0 1.3198,-0.287212 0.45817,-0.287211 0.45817,-0.820603 0,-0.478685 -0.31457,-0.738542 -0.30772,-0.2598577 -1.23774,-0.4650082 l -1.01891,-0.2256661 q -1.5318,-0.3282414 -2.24299,-1.0462692 -0.70435,-0.7180278 -0.70435,-1.9352551 0,-1.524954 0.98473,-2.3455571 0.98472,-0.820603 2.83108,-0.820603 0.84112,0 1.7301,0.1299288 0.88899,0.1230909 1.83952,0.3761096 z m 4.62894,-0.3214026 h 9.40958 v 1.9899622 h -3.38498 V 13.778377 H 234.8825 V 5.5586703 h -3.39183 z m 18.29882,1.7232667 q -1.20355,0 -1.86687,0.8889859 -0.66333,0.8889869 -0.66333,2.5028394 0,1.6070149 0.66333,2.4960009 0.66332,0.888987 1.86687,0.888987 1.21039,0 1.87371,-0.888987 0.66333,-0.888986 0.66333,-2.4960009 0,-1.6138525 -0.66333,-2.5028394 -0.66332,-0.8889859 -1.87371,-0.8889859 z m 0,-1.9079025 q 2.46181,0 3.85683,1.408702 1.39503,1.408702 1.39503,3.8910258 0,2.4754859 -1.39503,3.8841879 -1.39502,1.408702 -3.85683,1.408702 -2.45497,0 -3.85683,-1.408702 -1.39503,-1.408702 -1.39503,-3.8841879 0,-2.4823238 1.39503,-3.8910258 1.40186,-1.408702 3.85683,-1.408702 z m 13.84705,4.7116288 q 0.82743,0 1.18303,-0.3077258 0.36244,-0.3077257 0.36244,-1.0120767 0,-0.6975132 -0.36244,-0.998401 -0.3556,-0.3008879 -1.18303,-0.3008879 h -1.10781 v 2.6190914 z m -1.10781,1.819004 v 3.8636719 h -2.63277 V 3.5687081 h 4.02095 q 2.01731,0 2.95417,0.6769975 0.9437,0.6769975 0.9437,2.1404066 0,1.0120768 -0.49237,1.6617207 -0.48552,0.649644 -1.47025,0.9573698 0.54023,0.1230908 0.96421,0.5607454 0.43082,0.4308167 0.86848,1.3129659 l 1.42921,2.899463 h -2.80373 l -1.24458,-2.53703 q -0.37611,-0.765897 -0.76589,-1.04627 -0.38295,-0.2803719 -1.02575,-0.2803719 z m 8.82768,-6.345997 h 2.87895 l 2.32505,3.6380071 2.32504,-3.6380071 h 2.88579 l -3.89103,5.9083415 v 4.3013274 h -2.63277 V 9.4770496 Z"
     id="text1"
     aria-label="HISTORY" />
  <path
     d="m 70.31433,25.367348 c 0,-0.666665 -0.04,-0.853331 -0.25333,-1.306664 -0.53333,-1.119997 -1.66666,-1.706662 -3.30666,-1.706662 -2.13333,0 -3.45332,1.093331 -3.45332,2.853326 0,1.186664 0.62666,1.933329 1.90666,2.266661 l 2.41333,0.639998 c 1.23999,0.32 1.78666,0.813332 1.78666,1.57333 0,0.519998 -0.28,1.05333 -0.69333,1.346663 -0.38667,0.279999 -1,0.413332 -1.78667,0.413332 -1.06666,0 -1.77332,-0.253332 -2.23999,-0.813331 -0.36,-0.426666 -0.52,-0.893331 -0.50667,-1.49333 h -1.17333 c 0.0133,0.893332 0.18667,1.479997 0.57334,2.013329 0.66666,0.919997 1.78666,1.386663 3.26665,1.386663 1.16,0 2.10667,-0.266666 2.73333,-0.746665 0.65333,-0.519999 1.06666,-1.386663 1.06666,-2.226661 0,-1.199997 -0.74666,-2.079995 -2.06666,-2.439994 l -2.43999,-0.653331 c -1.17333,-0.32 -1.6,-0.693332 -1.6,-1.439997 0,-0.986664 0.86667,-1.639996 2.17333,-1.639996 1.54666,0 2.41333,0.693332 2.42666,1.973329 z m 4.40666,-0.12 h -1.10667 v 6.986649 h 1.10667 z m 0,-2.733326 h -1.12 v 1.399996 h 1.12 z m 3.39333,2.733326 v 6.986649 h 1.11999 v -3.853324 c 0,-1.426663 0.74667,-2.359994 1.89333,-2.359994 0.88,0 1.44,0.533332 1.44,1.37333 v 4.839988 H 83.6743 V 26.95401 c 0,-1.159997 -0.86666,-1.906661 -2.21333,-1.906661 -1.03999,0 -1.70666,0.399998 -2.31999,1.373329 v -1.17333 z m 14.25996,2.346661 c -0.0533,-0.679999 -0.2,-1.119997 -0.46667,-1.506663 -0.47999,-0.653332 -1.31999,-1.039997 -2.29332,-1.039997 -1.89333,0 -3.10666,1.493329 -3.10666,3.813323 0,2.253328 1.2,3.679991 3.09332,3.679991 1.66667,0 2.72,-0.999998 2.85333,-2.70666 h -1.12 c -0.18666,1.119997 -0.76,1.679996 -1.70666,1.679996 -1.22666,0 -1.95999,-0.999998 -1.95999,-2.653327 0,-1.746662 0.71999,-2.786659 1.93332,-2.786659 0.93333,0 1.52,0.546665 1.65333,1.519996 z m 8.80666,1.519996 c 0,-1.066664 -0.08,-1.706662 -0.28,-2.226661 -0.45334,-1.146664 -1.52,-1.839995 -2.82666,-1.839995 -1.94667,0 -3.2,1.479996 -3.2,3.786657 0,2.30666 1.2,3.706657 3.17333,3.706657 1.6,0 2.70666,-0.906664 2.98666,-2.426661 h -1.12 c -0.30666,0.919998 -0.93333,1.399997 -1.82666,1.399997 -0.70667,0 -1.30666,-0.319999 -1.68,-0.906665 -0.26666,-0.399999 -0.36,-0.799998 -0.37333,-1.493329 z m -5.11999,-0.906664 c 0.0933,-1.293331 0.88,-2.133328 1.99999,-2.133328 1.13333,0 1.92,0.879997 1.92,2.133328 z m 15.8533,-2.839993 v 6.866649 h 1.17333 v -9.639976 h -0.77334 c -0.41333,1.479997 -0.67999,1.679996 -2.49332,1.919996 v 0.853331 z m 6.16665,4.666655 c 0.22666,1.573329 1.23999,2.50666 2.67999,2.50666 1.05333,0 1.98666,-0.506665 2.54666,-1.37333 0.58667,-0.946664 0.85333,-2.119995 0.85333,-3.866657 0,-1.626662 -0.24,-2.653326 -0.8,-3.506658 -0.52,-0.786664 -1.34666,-1.199997 -2.38666,-1.199997 -1.79999,0 -3.09332,1.346664 -3.09332,3.213326 0,1.773328 1.19999,3.026659 2.90666,3.026659 0.89333,0 1.55999,-0.32 2.15999,-1.053331 -0.0133,2.399994 -0.76,3.719991 -2.10666,3.719991 -0.82666,0 -1.4,-0.533332 -1.58666,-1.466663 z m 2.87999,-6.413318 c 1.09333,0 1.91999,0.919998 1.91999,2.159995 0,1.186664 -0.79999,2.013328 -1.95999,2.013328 -1.13333,0 -1.84,-0.799998 -1.84,-2.079995 0,-1.21333 0.78667,-2.093328 1.88,-2.093328 z m 11.96664,1.479997 c -0.22667,-1.57333 -1.24,-2.506661 -2.68,-2.506661 -1.03999,0 -1.97333,0.506666 -2.53332,1.37333 -0.6,0.946665 -0.85334,2.119995 -0.85334,3.866657 0,1.626663 0.22667,2.653327 0.8,3.506658 0.50667,0.786665 1.33333,1.199997 2.37333,1.199997 1.8,0 3.09333,-1.346663 3.09333,-3.226659 0,-1.773328 -1.2,-3.026659 -2.89333,-3.026659 -0.93333,0 -1.66666,0.346666 -2.17333,1.053331 0.0133,-2.386661 0.76,-3.706657 2.10666,-3.706657 0.82667,0 1.4,0.533332 1.58667,1.466663 z m -2.84,2.226661 c 1.13333,0 1.84,0.799998 1.84,2.079994 0,1.213331 -0.8,2.093329 -1.88,2.093329 -1.09333,0 -1.91999,-0.919998 -1.91999,-2.146662 0,-1.199997 0.8,-2.026661 1.95999,-2.026661 z m 5.81999,2.70666 c 0.22666,1.573329 1.24,2.50666 2.67999,2.50666 1.05333,0 1.98666,-0.506665 2.54666,-1.37333 0.58667,-0.946664 0.85333,-2.119995 0.85333,-3.866657 0,-1.626662 -0.24,-2.653326 -0.79999,-3.506658 -0.52,-0.786664 -1.34667,-1.199997 -2.38667,-1.199997 -1.79999,0 -3.09332,1.346664 -3.09332,3.213326 0,1.773328 1.2,3.026659 2.90666,3.026659 0.89333,0 1.55999,-0.32 2.15999,-1.053331 -0.0133,2.399994 -0.75999,3.719991 -2.10666,3.719991 -0.82666,0 -1.39999,-0.533332 -1.58666,-1.466663 z m 2.87999,-6.413318 c 1.09333,0 1.92,0.919998 1.92,2.159995 0,1.186664 -0.8,2.013328 -1.96,2.013328 -1.13333,0 -1.83999,-0.799998 -1.83999,-2.079995 0,-1.21333 0.78666,-2.093328 1.87999,-2.093328 z"
     id="text2"
     style="font-size:13.3333px;font-family:'Nimbus Sans';-inkscape-font-specification:'Nimbus Sans, Normal';text-align:center;letter-spacing:1.5px;word-spacing:0px;text-anchor:middle;white-space:pre;fill:#f9f9f9;stroke-width:0"
     aria-label="Since 1969" />
</svg>
